PathFileType	4	(X/Y/Z)	s03c0103.trc
DataRate	CameraRate	NumFrames	NumMarkers	Units	OrigDataRate	OrigDataStartFrame	OrigNumFrames
200	200	5	50	mm	200	1750	2000
Frame#	Time	racr			lacr			c7			jug			rlel			rdr			llel			ldr			s2			lic			ric			lasi			rasi			rpsi			lpsi			rgt			lgt			rth1			rth2			rth3			rth4			rlfc			rmfc			rsh1			rsh2			rsh3			rsh4			rlmal			rcal			rtoe			rmt5			rmt1			lth1			lth2			lth4			lth3			llfc			lmfc			lsh1			lsh2			lsh3			lsh4			llmal			lcal			ltoe			lmt1			lmt5			SBIKE			LBIKE			RBIKE			
		X1	Y1	Z1	X2	Y2	Z2	X3	Y3	Z3	X4	Y4	Z4	X5	Y5	Z5	X6	Y6	Z6	X7	Y7	Z7	X8	Y8	Z8	X9	Y9	Z9	X10	Y10	Z10	X11	Y11	Z11	X12	Y12	Z12	X13	Y13	Z13	X14	Y14	Z14	X15	Y15	Z15	X16	Y16	Z16	X17	Y17	Z17	X18	Y18	Z18	X19	Y19	Z19	X20	Y20	Z20	X21	Y21	Z21	X22	Y22	Z22	X23	Y23	Z23	X24	Y24	Z24	X25	Y25	Z25	X26	Y26	Z26	X27	Y27	Z27	X28	Y28	Z28	X29	Y29	Z29	X30	Y30	Z30	X31	Y31	Z31	X32	Y32	Z32	X33	Y33	Z33	X34	Y34	Z34	X35	Y35	Z35	X36	Y36	Z36	X37	Y37	Z37	X38	Y38	Z38	X39	Y39	Z39	X40	Y40	Z40	X41	Y41	Z41	X42	Y42	Z42	X43	Y43	Z43	X44	Y44	Z44	X45	Y45	Z45	X46	Y46	Z46	X47	Y47	Z47	X48	Y48	Z48	X49	Y49	Z49	X50	Y50	Z50	
1750	8.7500	482.535658	1409.332992	-110.728656	462.462527	1412.369483	-415.675332	402.643990	1493.616212	-261.489804	417.956447	1327.095142	-256.224010	529.619346	1150.447503	-9.089748	732.131184	943.586077	-59.806689	538.177752	1153.198237	-469.515705	735.167436	924.419020	-424.972768	-110.159818	1201.620848	-234.174305	55.251984	1229.096122	-417.637226	58.202761	1233.845252	-53.262682	0.000000	0.000000	-0.000000	85.301573	1155.063907	-94.035692	-83.700113	1252.911950	-189.786550	-81.040045	1252.299922	-272.288852	-0.709531	1114.309613	-44.879832	4.187802	1149.326724	-438.492554	58.724343	963.315966	-25.131770	116.859572	895.806788	-26.129120	136.496787	812.920153	-39.085556	149.496703	912.577745	-33.423538	179.142906	695.862227	-73.189812	193.914780	682.125657	-185.781475	159.568352	528.455354	-42.169471	179.530917	441.618202	-51.997042	152.005063	357.340384	-54.086542	208.510981	442.167184	-77.595316	137.567855	223.864720	-74.620999	83.111339	170.740752	-110.436940	392.883661	193.271295	-117.613774	277.560957	163.887819	-44.141644	298.601758	186.554884	-158.053015	106.295648	1073.857613	-489.524298	187.914019	1061.603876	-514.861571	206.304407	1092.043711	-503.108083	254.441745	1003.800625	-534.086763	382.317414	942.699014	-549.550935	411.178331	934.575465	-420.443233	273.848983	808.620253	-530.193369	240.646665	739.061973	-492.456091	168.186258	691.540077	-467.118632	268.817135	725.714810	-468.903296	86.869203	603.963701	-417.584617	14.559429	580.128889	-359.563409	311.575194	498.212388	-366.063284	220.243403	515.023182	-319.574899	188.364315	500.581520	-432.595605	-220.575857	943.724962	-237.413662	-14.177959	80.671556	-437.299035	-14.397390	80.570124	-36.928407	
1751	8.7550	482.089395	1409.123057	-110.807320	462.015673	1412.140433	-415.566452	402.209885	1493.366329	-262.082240	417.464436	1326.857168	-256.248309	529.554893	1150.381000	-9.201390	732.166831	943.575355	-59.836901	538.089738	1153.122426	-469.384947	735.172081	924.393991	-424.915908	-110.761601	1201.373129	-234.113659	54.667948	1228.920924	-417.575217	57.692580	1233.707910	-53.215190	0.000000	0.000000	-0.000000	84.808900	1154.890435	-93.954872	-84.251615	1252.721695	-189.680907	-81.626842	1252.089503	-272.284686	-1.289767	1114.153239	-44.797918	3.551125	1149.048685	-438.454585	58.159951	963.126135	-25.100423	116.350341	895.626360	-26.113783	135.883051	812.740077	-39.129572	148.888344	912.421219	-33.419735	178.536078	695.708771	-73.265677	193.395166	681.983612	-185.824715	159.109771	528.311592	-42.246675	179.145802	441.435048	-52.028254	151.643972	357.170148	-54.079633	208.127287	442.057139	-77.648548	137.409131	223.631668	-74.597006	82.983542	170.456692	-110.437223	392.707368	193.411499	-117.604743	277.416820	163.857588	-44.123526	298.411326	186.528113	-158.049808	105.744897	1073.640676	-489.460984	187.359533	1061.514908	-514.792929	205.692464	1091.504818	-502.066170	253.994398	1003.745280	-533.912416	381.935619	942.907455	-549.352980	410.747412	934.911103	-420.204172	273.620665	808.670068	-530.035835	240.485844	739.150420	-492.307274	168.068542	691.502180	-467.002722	268.693680	725.799164	-468.713741	86.781742	603.867279	-417.500533	14.484658	579.934641	-359.494009	311.546210	498.393529	-366.040139	220.227671	515.055370	-319.571864	188.356766	500.612598	-432.569511	-220.589354	943.715219	-237.385945	-14.170087	80.653765	-437.308262	-14.399640	80.594474	-36.926798	
1752	8.7600	481.508384	1408.943286	-110.966479	461.548151	1411.914274	-415.512088	401.688527	1493.092016	-262.068619	416.934743	1326.618182	-256.261111	529.482725	1150.310694	-9.332033	732.213634	943.569263	-59.868152	537.997200	1153.022635	-469.228644	735.222552	924.353625	-424.885952	-111.364351	1201.250325	-234.031632	53.948170	1228.684355	-417.476104	57.214039	1233.589612	-53.150930	0.000000	0.000000	-0.000000	84.287102	1154.778307	-93.832496	-84.790112	1252.553233	-189.648739	-82.196918	1251.882885	-272.212660	-1.815916	1114.005932	-44.711372	2.792405	1148.811893	-438.418558	57.600560	962.972082	-25.116966	115.748522	895.464738	-26.138569	135.373059	812.558493	-39.138403	148.352331	912.248125	-33.386627	177.987256	695.599233	-73.328731	192.810983	681.797520	-185.873401	158.633573	528.166540	-42.275714	178.736833	441.251362	-52.048814	151.330750	357.030663	-54.053488	207.697051	441.917651	-77.647446	137.198875	223.435605	-74.543985	82.846634	170.152205	-110.408201	392.525443	193.552127	-117.581726	277.283029	163.817726	-44.114063	298.243657	186.499637	-158.029681	105.076218	1073.534079	-489.711532	186.840978	1061.412391	-514.674912	205.108415	1091.447748	-502.008915	253.495996	1003.665369	-533.741928	381.555875	943.099240	-549.145773	410.305105	935.184926	-419.971421	273.394617	808.741408	-529.905718	240.318187	739.182967	-492.165544	167.929909	691.462209	-466.911347	268.538052	725.885399	-468.550483	86.670401	603.782541	-417.429446	14.382175	579.762076	-359.447177	311.557356	498.524872	-365.999610	220.209060	515.085580	-319.539229	188.359114	500.635387	-432.521154	-220.610835	943.718765	-237.376954	-14.177040	80.652546	-437.299823	-14.391026	80.570924	-36.924356	
1753	8.7650	480.958764	1408.710406	-111.093799	461.116839	1411.669887	-415.463135	401.154549	1492.790430	-262.094753	416.388451	1326.372895	-256.316806	529.390417	1150.241013	-9.427816	732.256069	943.538516	-59.931953	537.887009	1152.933759	-469.081941	735.224760	924.326340	-424.828735	-111.966091	1201.067447	-233.935346	53.279361	1228.507782	-417.451194	56.623701	1233.455387	-53.094623	0.000000	0.000000	-0.000000	83.657955	1154.626254	-93.744095	-85.372952	1252.392147	-189.642432	-82.814209	1251.694956	-272.122436	-2.372176	1113.851576	-44.653600	2.125611	1148.541185	-438.379761	57.032854	962.836995	-25.135494	115.177857	895.348825	-26.155967	134.804394	812.412034	-39.167955	147.805242	912.145083	-33.388535	177.408609	695.455891	-73.382291	192.189127	681.607719	-185.912036	158.187917	527.977946	-42.258533	178.344026	441.075728	-52.066052	151.006815	356.849194	-54.009833	207.275906	441.771056	-77.654081	137.021880	223.165991	-74.542789	82.720935	169.849669	-110.375330	392.330267	193.725315	-117.594001	277.163523	163.762239	-44.110778	298.055251	186.483262	-158.030045	104.486009	1073.336376	-489.671794	186.262208	1061.329565	-514.617601	204.489267	1091.401792	-501.934552	253.142340	1004.337525	-534.213670	381.159694	943.265756	-548.963419	409.877711	935.481691	-419.780772	273.143973	808.836943	-529.788557	240.115943	739.231998	-492.014843	167.766710	691.436433	-466.831847	268.345107	725.965868	-468.432072	86.577523	603.693968	-417.381604	14.297898	579.553714	-359.396308	311.541058	498.647586	-366.015674	220.144336	515.085305	-319.551590	188.351441	500.664915	-432.514734	-220.637256	943.696068	-237.351263	-14.173901	80.653842	-437.310193	-14.404894	80.588168	-36.935505	
1754	8.7700	480.413065	1408.399263	-111.174070	460.631138	1411.436541	-415.423173	400.628470	1492.528104	-262.110791	415.837733	1326.092714	-256.287954	529.283561	1150.159686	-9.546693	732.285311	943.517086	-59.957437	537.779007	1152.838801	-468.948744	735.226148	924.308321	-424.764831	-112.596278	1200.930056	-233.894317	52.629848	1228.270008	-417.415785	56.077433	1233.296404	-53.068203	0.000000	0.000000	-0.000000	83.079970	1154.545863	-93.671118	-85.923058	1252.214228	-189.585048	-83.422927	1251.477787	-272.106831	-2.943175	1113.716944	-44.536981	1.390698	1148.264417	-438.417177	56.478520	962.651861	-25.104577	114.640818	895.173951	-26.124251	134.195270	812.233217	-39.215000	146.995678	912.148584	-33.130879	176.751918	695.252721	-73.454069	191.503050	681.438920	-186.023813	157.723096	527.820244	-42.240430	177.950048	440.947750	-52.051954	150.655195	356.656999	-53.939326	206.842237	441.631420	-77.644300	136.851444	222.907840	-74.485588	82.604383	169.537017	-110.319812	392.163005	193.943283	-117.596579	277.030559	163.715115	-44.105347	297.868693	186.485714	-158.053221	103.881149	1073.149346	-489.608550	185.660037	1061.198270	-514.495475	203.845321	1091.366875	-501.918706	252.673314	1004.322232	-534.062022	380.722422	943.439863	-548.827300	409.441895	935.777898	-419.574832	272.860039	808.916123	-529.679413	239.894080	739.293352	-491.889777	167.606797	691.422170	-466.755226	268.116220	726.026341	-468.310593	86.515180	603.692333	-417.338806	14.198014	579.364814	-359.354733	311.534561	498.772392	-365.992520	220.093766	515.118830	-319.565776	188.342501	500.686994	-432.496306	-220.796779	943.710392	-236.975796	-14.179129	80.651163	-437.310282	-14.403756	80.575745	-36.933788	
